<?xml version="1.0" standalone="no"?>
<!DOCTYPE svg PUBLIC "-//W3C//DTD SVG 20010904//EN"
 "http://www.w3.org/TR/2001/REC-SVG-20010904/DTD/svg10.dtd">
<svg version="1.0" xmlns="http://www.w3.org/2000/svg"
 width="200.000000pt" height="200.000000pt" viewBox="0 0 200.000000 200.000000"
 preserveAspectRatio="xMidYMid meet">
<metadata>
Created by potrace 1.16, written by Peter Selinger 2001-2019
</metadata>
<g transform="translate(0.000000,200.000000) scale(0.100000,-0.100000)"
fill="#000000" stroke="none">
<path d="M956 1778 c-14 -16 -14 -18 -1 -18 8 0 15 -4 15 -10 0 -15 -87 -12
-93 3 -4 10 -6 10 -6 0 -1 -8 -15 -13 -36 -13 l-36 0 2 -150 c1 -82 5 -150 9
-150 5 0 6 9 3 20 -5 19 0 20 185 20 143 0 191 -3 195 -12 5 -15 6 -3 7 136 0
54 -2 101 -5 104 -3 3 -5 -42 -5 -101 l0 -106 -167 -3 c-93 -2 -178 -2 -190 0
-22 3 -23 7 -23 118 l0 115 86 -3 86 -3 -4 31 c-3 27 -1 30 21 26 15 -3 22 -1
17 6 -10 16 -43 10 -60 -10z"/>
</g>
</svg>
