<svg xmlns="http://www.w3.org/2000/svg" width="510" height="649" viewBox="0 0 510 649">
<path d="M 509.0 648.5 L 508.0 648.5 L 507.0 648.5 L 506.0 648.5 L 505.0 648.5 L 504.0 648.5 L 503.0 648.5 L 502.0 648.5 L 501.0 648.5 L 500.0 648.5 L 499.0 648.5 L 498.0 648.5 L 497.0 648.5 L 496.0 648.5 L 495.0 648.5 L 494.0 648.5 L 493.0 648.5 L 492.0 648.5 L 491.0 648.5 L 490.0 648.5 L 489.0 648.5 L 488.0 648.5 L 487.0 648.5 L 486.0 648.5 L 485.0 648.5 L 484.0 648.5 L 483.0 648.5 L 482.0 648.5 L 481.0 648.5 L 480.0 648.5 L 479.0 648.5 L 478.0 648.5 L 477.0 648.5 L 476.0 648.5 L 475.0 648.5 L 474.0 648.5 L 473.0 648.5 L 472.0 648.5 L 471.0 648.5 L 470.0 648.5 L 469.0 648.5 L 468.0 648.5 L 467.0 648.5 L 466.0 648.5 L 465.0 648.5 L 464.0 648.5 L 463.0 648.5 L 462.0 648.5 L 461.0 648.5 L 460.0 648.5 L 459.0 648.5 L 458.0 648.5 L 457.0 648.5 L 456.0 648.5 L 455.0 648.5 L 454.0 648.5 L 453.0 648.5 L 452.0 648.5 L 451.0 648.5 L 450.0 648.5 L 449.0 648.5 L 448.0 648.5 L 447.0 648.5 L 446.0 648.5 L 445.0 648.5 L 444.0 648.5 L 443.0 648.5 L 442.0 648.5 L 441.0 648.5 L 440.0 648.5 L 439.0 648.5 L 438.0 648.5 L 437.0 648.5 L 436.0 648.5 L 435.0 648.5 L 434.0 648.5 L 433.0 648.5 L 432.0 648.5 L 431.0 648.5 L 430.0 648.5 L 429.0 648.5 L 428.0 648.5 L 427.0 648.5 L 426.0 648.5 L 425.0 648.5 L 424.0 648.5 L 423.0 648.5 L 422.0 648.5 L 421.0 648.5 L 420.0 648.5 L 419.0 648.5 L 418.0 648.5 L 417.0 648.5 L 416.0 648.5 L 415.0 648.5 L 414.0 648.5 L 413.0 648.5 L 412.0 648.5 L 411.0 648.5 L 410.0 648.5 L 409.0 648.5 L 408.0 648.5 L 407.0 648.5 L 406.0 648.5 L 405.0 648.5 L 404.0 648.5 L 403.0 648.5 L 402.0 648.5 L 401.0 648.5 L 400.0 648.5 L 399.0 648.5 L 398.0 648.5 L 397.0 648.5 L 396.0 648.5 L 395.0 648.5 L 394.0 648.5 L 393.0 648.5 L 392.0 648.5 L 391.0 648.5 L 390.0 648.5 L 389.0 648.5 L 388.0 648.5 L 387.0 648.5 L 386.0 648.5 L 385.0 648.5 L 384.0 648.5 L 383.0 648.5 L 382.0 648.5 L 381.0 648.5 L 380.0 648.5 L 379.0 648.5 L 378.0 648.5 L 377.0 648.5 L 376.0 648.5 L 375.0 648.5 L 374.0 648.5 L 373.0 648.5 L 372.0 648.5 L 371.0 648.5 L 370.0 648.5 L 369.0 648.5 L 368.0 648.5 L 367.0 648.5 L 366.0 648.5 L 365.0 648.5 L 364.0 648.5 L 363.0 648.5 L 362.0 648.5 L 361.0 648.5 L 360.0 648.5 L 359.0 648.5 L 358.0 648.5 L 357.0 648.5 L 356.0 648.5 L 355.0 648.5 L 354.0 648.5 L 353.0 648.5 L 352.0 648.5 L 351.0 648.5 L 350.0 648.5 L 349.0 648.5 L 348.0 648.5 L 347.0 648.5 L 346.0 648.5 L 345.0 648.5 L 344.0 648.5 L 343.0 648.5 L 342.0 648.5 L 341.0 648.5 L 340.0 648.5 L 339.0 648.5 L 338.0 648.5 L 337.0 648.5 L 336.0 648.5 L 335.0 648.5 L 334.0 648.5 L 333.0 648.5 L 332.0 648.5 L 331.0 648.5 L 330.0 648.5 L 329.0 648.5 L 328.0 648.5 L 327.0 648.5 L 326.0 648.5 L 325.0 648.5 L 324.0 648.5 L 323.0 648.5 L 322.0 648.5 L 321.0 648.5 L 320.0 648.5 L 319.0 648.5 L 318.0 648.5 L 317.0 648.5 L 316.0 648.5 L 315.0 648.5 L 314.0 648.5 L 313.0 648.5 L 312.0 648.5 L 311.0 648.5 L 310.0 648.5 L 309.0 648.5 L 308.0 648.5 L 307.0 648.5 L 306.0 648.5 L 305.0 648.5 L 304.0 648.5 L 303.0 648.5 L 302.0 648.5 L 301.0 648.5 L 300.0 648.5 L 299.0 648.5 L 298.0 648.5 L 297.0 648.5 L 296.0 648.5 L 295.0 648.5 L 294.0 648.5 L 293.0 648.5 L 292.0 648.5 L 291.0 648.5 L 290.0 648.5 L 289.0 648.5 L 288.0 648.5 L 287.0 648.5 L 286.0 648.5 L 285.0 648.5 L 284.0 648.5 L 283.0 648.5 L 282.0 648.5 L 281.0 648.5 L 280.0 648.5 L 279.0 648.5 L 278.0 648.5 L 277.0 648.5 L 276.0 648.5 L 275.0 648.5 L 274.0 648.5 L 273.0 648.5 L 272.0 648.5 L 271.0 648.5 L 270.0 648.5 L 269.0 648.5 L 268.0 648.5 L 267.0 648.5 L 266.0 648.5 L 265.0 648.5 L 264.0 648.5 L 263.0 648.5 L 262.0 648.5 L 261.0 648.5 L 260.0 648.5 L 259.0 648.5 L 258.0 648.5 L 257.0 648.5 L 256.0 648.5 L 255.0 648.5 L 254.0 648.5 L 253.0 648.5 L 252.0 648.5 L 251.0 648.5 L 250.0 648.5 L 249.0 648.5 L 248.0 648.5 L 247.0 648.5 L 246.0 648.5 L 245.0 648.5 L 244.0 648.5 L 243.0 648.5 L 242.0 648.5 L 241.0 648.5 L 240.0 648.5 L 239.0 648.5 L 238.0 648.5 L 237.0 648.5 L 236.0 648.5 L 235.0 648.5 L 234.0 648.5 L 233.0 648.5 L 232.0 648.5 L 231.0 648.5 L 230.0 648.5 L 229.0 648.5 L 228.0 648.5 L 227.0 648.5 L 226.0 648.5 L 225.0 648.5 L 224.0 648.5 L 223.0 648.5 L 222.0 648.5 L 221.0 648.5 L 220.0 648.5 L 219.0 648.5 L 218.0 648.5 L 217.0 648.5 L 216.0 648.5 L 215.0 648.5 L 214.0 648.5 L 213.0 648.5 L 212.0 648.5 L 211.0 648.5 L 210.0 648.5 L 209.0 648.5 L 208.0 648.5 L 207.0 648.5 L 206.0 648.5 L 205.0 648.5 L 204.0 648.5 L 203.0 648.5 L 202.0 648.5 L 201.0 648.5 L 200.0 648.5 L 199.0 648.5 L 198.0 648.5 L 197.0 648.5 L 196.0 648.5 L 195.0 648.5 L 194.0 648.5 L 193.0 648.5 L 192.0 648.5 L 191.0 648.5 L 190.0 648.5 L 189.0 648.5 L 188.0 648.5 L 187.0 648.5 L 186.0 648.5 L 185.0 648.5 L 184.0 648.5 L 183.0 648.5 L 182.0 648.5 L 181.0 648.5 L 180.0 648.5 L 179.0 648.5 L 178.0 648.5 L 177.0 648.5 L 176.0 648.5 L 175.0 648.5 L 174.0 648.5 L 173.0 648.5 L 172.0 648.5 L 171.0 648.5 L 170.0 648.5 L 169.0 648.5 L 168.0 648.5 L 167.0 648.5 L 166.0 648.5 L 165.0 648.5 L 164.0 648.5 L 163.0 648.5 L 162.0 648.5 L 161.0 648.5 L 160.0 648.5 L 159.0 648.5 L 158.0 648.5 L 157.0 648.5 L 156.0 648.5 L 155.0 648.5 L 154.0 648.5 L 153.0 648.5 L 152.0 648.5 L 151.0 648.5 L 150.0 648.5 L 149.0 648.5 L 148.0 648.5 L 147.0 648.5 L 146.0 648.5 L 145.0 648.5 L 144.0 648.5 L 143.0 648.5 L 142.0 648.5 L 141.0 648.5 L 140.0 648.5 L 139.0 648.5 L 138.0 648.5 L 137.0 648.5 L 136.0 648.5 L 135.0 648.5 L 134.0 648.5 L 133.0 648.5 L 132.0 648.5 L 131.0 648.5 L 130.0 648.5 L 129.0 648.5 L 128.0 648.5 L 127.0 648.5 L 126.0 648.5 L 125.0 648.5 L 124.0 648.5 L 123.0 648.5 L 122.0 648.5 L 121.0 648.5 L 120.0 648.5 L 119.0 648.5 L 118.0 648.5 L 117.0 648.5 L 116.0 648.5 L 115.0 648.5 L 114.0 648.5 L 113.0 648.5 L 112.0 648.5 L 111.0 648.5 L 110.0 648.5 L 109.0 648.5 L 108.0 648.5 L 107.0 648.5 L 106.0 648.5 L 105.0 648.5 L 104.0 648.5 L 103.0 648.5 L 102.0 648.5 L 101.0 648.5 L 100.0 648.5 L 99.0 648.5 L 98.0 648.5 L 97.0 648.5 L 96.0 648.5 L 95.0 648.5 L 94.0 648.5 L 93.0 648.5 L 92.0 648.5 L 91.0 648.5 L 90.0 648.5 L 89.0 648.5 L 88.0 648.5 L 87.0 648.5 L 86.0 648.5 L 85.0 648.5 L 84.0 648.5 L 83.0 648.5 L 82.0 648.5 L 81.0 648.5 L 80.0 648.5 L 79.0 648.5 L 78.0 648.5 L 77.0 648.5 L 76.0 648.5 L 75.0 648.5 L 74.0 648.5 L 73.0 648.5 L 72.0 648.5 L 71.0 648.5 L 70.0 648.5 L 69.0 648.5 L 68.0 648.5 L 67.0 648.5 L 66.0 648.5 L 65.0 648.5 L 64.0 648.5 L 63.0 648.5 L 62.0 648.5 L 61.0 648.5 L 60.0 648.5 L 59.0 648.5 L 58.0 648.5 L 57.0 648.5 L 56.0 648.5 L 55.0 648.5 L 54.0 648.5 L 53.0 648.5 L 52.0 648.5 L 51.0 648.5 L 50.0 648.5 L 49.0 648.5 L 48.0 648.5 L 47.0 648.5 L 46.0 648.5 L 45.0 648.5 L 44.0 648.5 L 43.0 648.5 L 42.0 648.5 L 41.0 648.5 L 40.0 648.5 L 39.0 648.5 L 38.0 648.5 L 37.0 648.5 L 36.0 648.5 L 35.0 648.5 L 34.0 648.5 L 33.0 648.5 L 32.0 648.5 L 31.0 648.5 L 30.0 648.5 L 29.0 648.5 L 28.0 648.5 L 27.0 648.5 L 26.0 648.5 L 25.0 648.5 L 24.0 648.5 L 23.0 648.5 L 22.0 648.5 L 21.0 648.5 L 20.0 648.5 L 19.0 648.5 L 18.0 648.5 L 17.0 648.5 L 16.0 648.5 L 15.0 648.5 L 14.0 648.5 L 13.0 648.5 L 12.0 648.5 L 11.0 648.5 L 10.0 648.5 L 9.0 648.5 L 8.0 648.5 L 7.0 648.5 L 6.0 648.5 L 5.0 648.5 L 4.0 648.5 L 3.0 648.5 L 2.0 648.5 L 1.0 648.5 L 0.0 648.5 L -0.5 648.0 L -0.5 647.0 L -0.5 646.0 L -0.5 645.0 L -0.5 644.0 L -0.5 643.0 L -0.5 642.0 L -0.5 641.0 L -0.5 640.0 L -0.5 639.0 L -0.5 638.0 L -0.5 637.0 L -0.5 636.0 L -0.5 635.0 L -0.5 634.0 L -0.5 633.0 L -0.5 632.0 L -0.5 631.0 L -0.5 630.0 L -0.5 629.0 L -0.5 628.0 L -0.5 627.0 L -0.5 626.0 L -0.5 625.0 L -0.5 624.0 L -0.5 623.0 L -0.5 622.0 L -0.5 621.0 L -0.5 620.0 L -0.5 619.0 L -0.5 618.0 L -0.5 617.0 L -0.5 616.0 L -0.5 615.0 L -0.5 614.0 L -0.5 613.0 L -0.5 612.0 L -0.5 611.0 L -0.5 610.0 L -0.5 609.0 L -0.5 608.0 L -0.5 607.0 L -0.5 606.0 L -0.5 605.0 L -0.5 604.0 L -0.5 603.0 L -0.5 602.0 L -0.5 601.0 L -0.5 600.0 L -0.5 599.0 L -0.5 598.0 L -0.5 597.0 L -0.5 596.0 L -0.5 595.0 L -0.5 594.0 L -0.5 593.0 L -0.5 592.0 L -0.5 591.0 L -0.5 590.0 L -0.5 589.0 L -0.5 588.0 L -0.5 587.0 L -0.5 586.0 L -0.5 585.0 L -0.5 584.0 L -0.5 583.0 L -0.5 582.0 L -0.5 581.0 L -0.5 580.0 L -0.5 579.0 L -0.5 578.0 L -0.5 577.0 L -0.5 576.0 L -0.5 575.0 L -0.5 574.0 L -0.5 573.0 L -0.5 572.0 L -0.5 571.0 L -0.5 570.0 L -0.5 569.0 L -0.5 568.0 L -0.5 567.0 L -0.5 566.0 L -0.5 565.0 L -0.5 564.0 L -0.5 563.0 L -0.5 562.0 L -0.5 561.0 L -0.5 560.0 L -0.5 559.0 L -0.5 558.0 L -0.5 557.0 L -0.5 556.0 L -0.5 555.0 L -0.5 554.0 L -0.5 553.0 L -0.5 552.0 L -0.5 551.0 L -0.5 550.0 L -0.5 549.0 L -0.5 548.0 L -0.5 547.0 L -0.5 546.0 L -0.5 545.0 L -0.5 544.0 L -0.5 543.0 L -0.5 542.0 L -0.5 541.0 L -0.5 540.0 L -0.5 539.0 L -0.5 538.0 L -0.5 537.0 L -0.5 536.0 L -0.5 535.0 L -0.5 534.0 L -0.5 533.0 L -0.5 532.0 L -0.5 531.0 L -0.5 530.0 L -0.5 529.0 L -0.5 528.0 L -0.5 527.0 L -0.5 526.0 L -0.5 525.0 L -0.5 524.0 L -0.5 523.0 L -0.5 522.0 L -0.5 521.0 L -0.5 520.0 L -0.5 519.0 L -0.5 518.0 L -0.5 517.0 L -0.5 516.0 L -0.5 515.0 L -0.5 514.0 L -0.5 513.0 L -0.5 512.0 L -0.5 511.0 L -0.5 510.0 L -0.5 509.0 L -0.5 508.0 L -0.5 507.0 L -0.5 506.0 L -0.5 505.0 L -0.5 504.0 L -0.5 503.0 L -0.5 502.0 L -0.5 501.0 L -0.5 500.0 L -0.5 499.0 L -0.5 498.0 L -0.5 497.0 L -0.5 496.0 L -0.5 495.0 L -0.5 494.0 L -0.5 493.0 L -0.5 492.0 L -0.5 491.0 L -0.5 490.0 L -0.5 489.0 L -0.5 488.0 L -0.5 487.0 L -0.5 486.0 L -0.5 485.0 L -0.5 484.0 L -0.5 483.0 L -0.5 482.0 L -0.5 481.0 L -0.5 480.0 L -0.5 479.0 L -0.5 478.0 L -0.5 477.0 L -0.5 476.0 L -0.5 475.0 L -0.5 474.0 L -0.5 473.0 L -0.5 472.0 L -0.5 471.0 L -0.5 470.0 L -0.5 469.0 L -0.5 468.0 L -0.5 467.0 L -0.5 466.0 L -0.5 465.0 L -0.5 464.0 L -0.5 463.0 L -0.5 462.0 L -0.5 461.0 L -0.5 460.0 L -0.5 459.0 L -0.5 458.0 L -0.5 457.0 L -0.5 456.0 L -0.5 455.0 L -0.5 454.0 L -0.5 453.0 L -0.5 452.0 L -0.5 451.0 L -0.5 450.0 L -0.5 449.0 L -0.5 448.0 L -0.5 447.0 L -0.5 446.0 L -0.5 445.0 L -0.5 444.0 L -0.5 443.0 L -0.5 442.0 L -0.5 441.0 L -0.5 440.0 L -0.5 439.0 L -0.5 438.0 L -0.5 437.0 L -0.5 436.0 L -0.5 435.0 L -0.5 434.0 L -0.5 433.0 L -0.5 432.0 L -0.5 431.0 L -0.5 430.0 L -0.5 429.0 L -0.5 428.0 L -0.5 427.0 L -0.5 426.0 L -0.5 425.0 L -0.5 424.0 L -0.5 423.0 L -0.5 422.0 L -0.5 421.0 L -0.5 420.0 L -0.5 419.0 L -0.5 418.0 L -0.5 417.0 L -0.5 416.0 L -0.5 415.0 L -0.5 414.0 L -0.5 413.0 L -0.5 412.0 L -0.5 411.0 L -0.5 410.0 L -0.5 409.0 L -0.5 408.0 L -0.5 407.0 L -0.5 406.0 L -0.5 405.0 L -0.5 404.0 L -0.5 403.0 L -0.5 402.0 L -0.5 401.0 L -0.5 400.0 L -0.5 399.0 L -0.5 398.0 L -0.5 397.0 L -0.5 396.0 L -0.5 395.0 L -0.5 394.0 L -0.5 393.0 L -0.5 392.0 L -0.5 391.0 L -0.5 390.0 L -0.5 389.0 L -0.5 388.0 L -0.5 387.0 L -0.5 386.0 L -0.5 385.0 L -0.5 384.0 L -0.5 383.0 L -0.5 382.0 L -0.5 381.0 L -0.5 380.0 L -0.5 379.0 L -0.5 378.0 L -0.5 377.0 L -0.5 376.0 L -0.5 375.0 L -0.5 374.0 L -0.5 373.0 L -0.5 372.0 L -0.5 371.0 L -0.5 370.0 L -0.5 369.0 L -0.5 368.0 L -0.5 367.0 L -0.5 366.0 L -0.5 365.0 L -0.5 364.0 L -0.5 363.0 L -0.5 362.0 L -0.5 361.0 L -0.5 360.0 L -0.5 359.0 L -0.5 358.0 L -0.5 357.0 L -0.5 356.0 L -0.5 355.0 L -0.5 354.0 L -0.5 353.0 L -0.5 352.0 L -0.5 351.0 L -0.5 350.0 L -0.5 349.0 L -0.5 348.0 L -0.5 347.0 L -0.5 346.0 L -0.5 345.0 L -0.5 344.0 L -0.5 343.0 L -0.5 342.0 L -0.5 341.0 L -0.5 340.0 L -0.5 339.0 L -0.5 338.0 L -0.5 337.0 L -0.5 336.0 L -0.5 335.0 L -0.5 334.0 L -0.5 333.0 L -0.5 332.0 L -0.5 331.0 L -0.5 330.0 L -0.5 329.0 L -0.5 328.0 L -0.5 327.0 L -0.5 326.0 L -0.5 325.0 L -0.5 324.0 L -0.5 323.0 L -0.5 322.0 L -0.5 321.0 L -0.5 320.0 L -0.5 319.0 L -0.5 318.0 L -0.5 317.0 L -0.5 316.0 L -0.5 315.0 L -0.5 314.0 L -0.5 313.0 L -0.5 312.0 L -0.5 311.0 L -0.5 310.0 L -0.5 309.0 L -0.5 308.0 L -0.5 307.0 L -0.5 306.0 L -0.5 305.0 L -0.5 304.0 L -0.5 303.0 L -0.5 302.0 L -0.5 301.0 L -0.5 300.0 L -0.5 299.0 L -0.5 298.0 L -0.5 297.0 L -0.5 296.0 L -0.5 295.0 L -0.5 294.0 L -0.5 293.0 L -0.5 292.0 L -0.5 291.0 L -0.5 290.0 L -0.5 289.0 L -0.5 288.0 L -0.5 287.0 L -0.5 286.0 L -0.5 285.0 L -0.5 284.0 L -0.5 283.0 L -0.5 282.0 L -0.5 281.0 L -0.5 280.0 L -0.5 279.0 L -0.5 278.0 L -0.5 277.0 L -0.5 276.0 L -0.5 275.0 L -0.5 274.0 L -0.5 273.0 L -0.5 272.0 L -0.5 271.0 L -0.5 270.0 L -0.5 269.0 L -0.5 268.0 L -0.5 267.0 L -0.5 266.0 L -0.5 265.0 L -0.5 264.0 L -0.5 263.0 L -0.5 262.0 L -0.5 261.0 L -0.5 260.0 L -0.5 259.0 L -0.5 258.0 L -0.5 257.0 L -0.5 256.0 L -0.5 255.0 L -0.5 254.0 L -0.5 253.0 L -0.5 252.0 L -0.5 251.0 L -0.5 250.0 L -0.5 249.0 L -0.5 248.0 L -0.5 247.0 L -0.5 246.0 L -0.5 245.0 L -0.5 244.0 L -0.5 243.0 L -0.5 242.0 L -0.5 241.0 L -0.5 240.0 L -0.5 239.0 L -0.5 238.0 L -0.5 237.0 L -0.5 236.0 L -0.5 235.0 L -0.5 234.0 L -0.5 233.0 L -0.5 232.0 L -0.5 231.0 L -0.5 230.0 L -0.5 229.0 L -0.5 228.0 L -0.5 227.0 L -0.5 226.0 L -0.5 225.0 L -0.5 224.0 L -0.5 223.0 L -0.5 222.0 L -0.5 221.0 L -0.5 220.0 L -0.5 219.0 L -0.5 218.0 L -0.5 217.0 L -0.5 216.0 L -0.5 215.0 L -0.5 214.0 L -0.5 213.0 L -0.5 212.0 L -0.5 211.0 L -0.5 210.0 L -0.5 209.0 L -0.5 208.0 L -0.5 207.0 L -0.5 206.0 L -0.5 205.0 L -0.5 204.0 L -0.5 203.0 L -0.5 202.0 L -0.5 201.0 L -0.5 200.0 L -0.5 199.0 L -0.5 198.0 L -0.5 197.0 L -0.5 196.0 L -0.5 195.0 L -0.5 194.0 L -0.5 193.0 L -0.5 192.0 L -0.5 191.0 L -0.5 190.0 L -0.5 189.0 L -0.5 188.0 L -0.5 187.0 L -0.5 186.0 L -0.5 185.0 L -0.5 184.0 L -0.5 183.0 L -0.5 182.0 L -0.5 181.0 L -0.5 180.0 L -0.5 179.0 L -0.5 178.0 L -0.5 177.0 L -0.5 176.0 L -0.5 175.0 L -0.5 174.0 L -0.5 173.0 L -0.5 172.0 L -0.5 171.0 L -0.5 170.0 L -0.5 169.0 L -0.5 168.0 L -0.5 167.0 L -0.5 166.0 L -0.5 165.0 L -0.5 164.0 L -0.5 163.0 L -0.5 162.0 L -0.5 161.0 L -0.5 160.0 L -0.5 159.0 L -0.5 158.0 L -0.5 157.0 L -0.5 156.0 L -0.5 155.0 L -0.5 154.0 L -0.5 153.0 L -0.5 152.0 L -0.5 151.0 L -0.5 150.0 L -0.5 149.0 L -0.5 148.0 L -0.5 147.0 L -0.5 146.0 L -0.5 145.0 L -0.5 144.0 L -0.5 143.0 L -0.5 142.0 L -0.5 141.0 L -0.5 140.0 L -0.5 139.0 L -0.5 138.0 L -0.5 137.0 L -0.5 136.0 L -0.5 135.0 L -0.5 134.0 L -0.5 133.0 L -0.5 132.0 L -0.5 131.0 L -0.5 130.0 L -0.5 129.0 L -0.5 128.0 L -0.5 127.0 L -0.5 126.0 L -0.5 125.0 L -0.5 124.0 L -0.5 123.0 L -0.5 122.0 L -0.5 121.0 L -0.5 120.0 L -0.5 119.0 L -0.5 118.0 L -0.5 117.0 L -0.5 116.0 L -0.5 115.0 L -0.5 114.0 L -0.5 113.0 L -0.5 112.0 L -0.5 111.0 L -0.5 110.0 L -0.5 109.0 L -0.5 108.0 L -0.5 107.0 L -0.5 106.0 L -0.5 105.0 L -0.5 104.0 L -0.5 103.0 L -0.5 102.0 L -0.5 101.0 L -0.5 100.0 L -0.5 99.0 L -0.5 98.0 L -0.5 97.0 L -0.5 96.0 L -0.5 95.0 L -0.5 94.0 L -0.5 93.0 L -0.5 92.0 L -0.5 91.0 L -0.5 90.0 L -0.5 89.0 L -0.5 88.0 L -0.5 87.0 L -0.5 86.0 L -0.5 85.0 L -0.5 84.0 L -0.5 83.0 L -0.5 82.0 L -0.5 81.0 L -0.5 80.0 L -0.5 79.0 L -0.5 78.0 L -0.5 77.0 L -0.5 76.0 L -0.5 75.0 L -0.5 74.0 L -0.5 73.0 L -0.5 72.0 L -0.5 71.0 L -0.5 70.0 L -0.5 69.0 L -0.5 68.0 L -0.5 67.0 L -0.5 66.0 L -0.5 65.0 L -0.5 64.0 L -0.5 63.0 L -0.5 62.0 L -0.5 61.0 L -0.5 60.0 L -0.5 59.0 L -0.5 58.0 L -0.5 57.0 L -0.5 56.0 L -0.5 55.0 L -0.5 54.0 L -0.5 53.0 L -0.5 52.0 L -0.5 51.0 L -0.5 50.0 L -0.5 49.0 L -0.5 48.0 L -0.5 47.0 L -0.5 46.0 L -0.5 45.0 L -0.5 44.0 L -0.5 43.0 L -0.5 42.0 L -0.5 41.0 L -0.5 40.0 L -0.5 39.0 L -0.5 38.0 L -0.5 37.0 L -0.5 36.0 L -0.5 35.0 L -0.5 34.0 L -0.5 33.0 L -0.5 32.0 L -0.5 31.0 L -0.5 30.0 L -0.5 29.0 L -0.5 28.0 L -0.5 27.0 L -0.5 26.0 L -0.5 25.0 L -0.5 24.0 L -0.5 23.0 L -0.5 22.0 L -0.5 21.0 L -0.5 20.0 L -0.5 19.0 L -0.5 18.0 L -0.5 17.0 L -0.5 16.0 L -0.5 15.0 L -0.5 14.0 L -0.5 13.0 L -0.5 12.0 L -0.5 11.0 L -0.5 10.0 L -0.5 9.0 L -0.5 8.0 L -0.5 7.0 L -0.5 6.0 L -0.5 5.0 L -0.5 4.0 L -0.5 3.0 L -0.5 2.0 L -0.5 1.0 L -0.5 0.0 L 0.0 -0.5 L 1.0 -0.5 L 2.0 -0.5 L 3.0 -0.5 L 4.0 -0.5 L 5.0 -0.5 L 6.0 -0.5 L 7.0 -0.5 L 8.0 -0.5 L 9.0 -0.5 L 10.0 -0.5 L 11.0 -0.5 L 12.0 -0.5 L 13.0 -0.5 L 14.0 -0.5 L 15.0 -0.5 L 16.0 -0.5 L 17.0 -0.5 L 18.0 -0.5 L 19.0 -0.5 L 20.0 -0.5 L 21.0 -0.5 L 22.0 -0.5 L 23.0 -0.5 L 24.0 -0.5 L 25.0 -0.5 L 26.0 -0.5 L 27.0 -0.5 L 28.0 -0.5 L 29.0 -0.5 L 30.0 -0.5 L 31.0 -0.5 L 32.0 -0.5 L 33.0 -0.5 L 34.0 -0.5 L 35.0 -0.5 L 36.0 -0.5 L 37.0 -0.5 L 38.0 -0.5 L 39.0 -0.5 L 40.0 -0.5 L 41.0 -0.5 L 42.0 -0.5 L 43.0 -0.5 L 44.0 -0.5 L 45.0 -0.5 L 46.0 -0.5 L 47.0 -0.5 L 48.0 -0.5 L 49.0 -0.5 L 50.0 -0.5 L 51.0 -0.5 L 52.0 -0.5 L 53.0 -0.5 L 54.0 -0.5 L 55.0 -0.5 L 56.0 -0.5 L 57.0 -0.5 L 58.0 -0.5 L 59.0 -0.5 L 60.0 -0.5 L 61.0 -0.5 L 62.0 -0.5 L 63.0 -0.5 L 64.0 -0.5 L 65.0 -0.5 L 66.0 -0.5 L 67.0 -0.5 L 68.0 -0.5 L 69.0 -0.5 L 70.0 -0.5 L 71.0 -0.5 L 72.0 -0.5 L 73.0 -0.5 L 74.0 -0.5 L 75.0 -0.5 L 76.0 -0.5 L 77.0 -0.5 L 78.0 -0.5 L 79.0 -0.5 L 80.0 -0.5 L 81.0 -0.5 L 82.0 -0.5 L 83.0 -0.5 L 84.0 -0.5 L 85.0 -0.5 L 86.0 -0.5 L 87.0 -0.5 L 88.0 -0.5 L 89.0 -0.5 L 90.0 -0.5 L 91.0 -0.5 L 92.0 -0.5 L 93.0 -0.5 L 94.0 -0.5 L 95.0 -0.5 L 96.0 -0.5 L 97.0 -0.5 L 98.0 -0.5 L 99.0 -0.5 L 100.0 -0.5 L 101.0 -0.5 L 102.0 -0.5 L 103.0 -0.5 L 104.0 -0.5 L 105.0 -0.5 L 106.0 -0.5 L 107.0 -0.5 L 108.0 -0.5 L 109.0 -0.5 L 110.0 -0.5 L 111.0 -0.5 L 112.0 -0.5 L 113.0 -0.5 L 114.0 -0.5 L 115.0 -0.5 L 116.0 -0.5 L 117.0 -0.5 L 118.0 -0.5 L 119.0 -0.5 L 120.0 -0.5 L 121.0 -0.5 L 122.0 -0.5 L 123.0 -0.5 L 124.0 -0.5 L 125.0 -0.5 L 126.0 -0.5 L 127.0 -0.5 L 128.0 -0.5 L 129.0 -0.5 L 130.0 -0.5 L 131.0 -0.5 L 132.0 -0.5 L 133.0 -0.5 L 134.0 -0.5 L 135.0 -0.5 L 136.0 -0.5 L 137.0 -0.5 L 138.0 -0.5 L 139.0 -0.5 L 140.0 -0.5 L 141.0 -0.5 L 142.0 -0.5 L 143.0 -0.5 L 144.0 -0.5 L 145.0 -0.5 L 146.0 -0.5 L 147.0 -0.5 L 148.0 -0.5 L 149.0 -0.5 L 150.0 -0.5 L 151.0 -0.5 L 152.0 -0.5 L 153.0 -0.5 L 154.0 -0.5 L 155.0 -0.5 L 156.0 -0.5 L 157.0 -0.5 L 158.0 -0.5 L 159.0 -0.5 L 160.0 -0.5 L 161.0 -0.5 L 162.0 -0.5 L 163.0 -0.5 L 164.0 -0.5 L 165.0 -0.5 L 166.0 -0.5 L 167.0 -0.5 L 168.0 -0.5 L 169.0 -0.5 L 170.0 -0.5 L 171.0 -0.5 L 172.0 -0.5 L 173.0 -0.5 L 174.0 -0.5 L 175.0 -0.5 L 176.0 -0.5 L 177.0 -0.5 L 178.0 -0.5 L 179.0 -0.5 L 180.0 -0.5 L 181.0 -0.5 L 182.0 -0.5 L 183.0 -0.5 L 184.0 -0.5 L 185.0 -0.5 L 186.0 -0.5 L 187.0 -0.5 L 188.0 -0.5 L 189.0 -0.5 L 190.0 -0.5 L 191.0 -0.5 L 192.0 -0.5 L 193.0 -0.5 L 194.0 -0.5 L 195.0 -0.5 L 196.0 -0.5 L 197.0 -0.5 L 198.0 -0.5 L 199.0 -0.5 L 200.0 -0.5 L 201.0 -0.5 L 202.0 -0.5 L 203.0 -0.5 L 204.0 -0.5 L 205.0 -0.5 L 206.0 -0.5 L 207.0 -0.5 L 208.0 -0.5 L 209.0 -0.5 L 210.0 -0.5 L 211.0 -0.5 L 212.0 -0.5 L 213.0 -0.5 L 214.0 -0.5 L 215.0 -0.5 L 216.0 -0.5 L 217.0 -0.5 L 218.0 -0.5 L 219.0 -0.5 L 220.0 -0.5 L 221.0 -0.5 L 222.0 -0.5 L 223.0 -0.5 L 224.0 -0.5 L 225.0 -0.5 L 226.0 -0.5 L 227.0 -0.5 L 228.0 -0.5 L 229.0 -0.5 L 230.0 -0.5 L 231.0 -0.5 L 232.0 -0.5 L 233.0 -0.5 L 234.0 -0.5 L 235.0 -0.5 L 236.0 -0.5 L 237.0 -0.5 L 238.0 -0.5 L 239.0 -0.5 L 240.0 -0.5 L 241.0 -0.5 L 242.0 -0.5 L 243.0 -0.5 L 244.0 -0.5 L 245.0 -0.5 L 246.0 -0.5 L 247.0 -0.5 L 248.0 -0.5 L 249.0 -0.5 L 250.0 -0.5 L 251.0 -0.5 L 252.0 -0.5 L 253.0 -0.5 L 254.0 -0.5 L 255.0 -0.5 L 256.0 -0.5 L 257.0 -0.5 L 258.0 -0.5 L 259.0 -0.5 L 260.0 -0.5 L 261.0 -0.5 L 262.0 -0.5 L 263.0 -0.5 L 264.0 -0.5 L 265.0 -0.5 L 266.0 -0.5 L 267.0 -0.5 L 268.0 -0.5 L 269.0 -0.5 L 270.0 -0.5 L 271.0 -0.5 L 272.0 -0.5 L 273.0 -0.5 L 274.0 -0.5 L 275.0 -0.5 L 276.0 -0.5 L 277.0 -0.5 L 278.0 -0.5 L 279.0 -0.5 L 280.0 -0.5 L 281.0 -0.5 L 282.0 -0.5 L 283.0 -0.5 L 284.0 -0.5 L 285.0 -0.5 L 286.0 -0.5 L 287.0 -0.5 L 288.0 -0.5 L 289.0 -0.5 L 290.0 -0.5 L 291.0 -0.5 L 292.0 -0.5 L 293.0 -0.5 L 294.0 -0.5 L 295.0 -0.5 L 296.0 -0.5 L 297.0 -0.5 L 298.0 -0.5 L 299.0 -0.5 L 300.0 -0.5 L 301.0 -0.5 L 302.0 -0.5 L 303.0 -0.5 L 304.0 -0.5 L 305.0 -0.5 L 306.0 -0.5 L 307.0 -0.5 L 308.0 -0.5 L 309.0 -0.5 L 310.0 -0.5 L 311.0 -0.5 L 312.0 -0.5 L 313.0 -0.5 L 314.0 -0.5 L 315.0 -0.5 L 316.0 -0.5 L 317.0 -0.5 L 318.0 -0.5 L 319.0 -0.5 L 320.0 -0.5 L 321.0 -0.5 L 322.0 -0.5 L 323.0 -0.5 L 324.0 -0.5 L 325.0 -0.5 L 326.0 -0.5 L 327.0 -0.5 L 328.0 -0.5 L 329.0 -0.5 L 330.0 -0.5 L 331.0 -0.5 L 332.0 -0.5 L 333.0 -0.5 L 334.0 -0.5 L 335.0 -0.5 L 336.0 -0.5 L 337.0 -0.5 L 338.0 -0.5 L 339.0 -0.5 L 340.0 -0.5 L 341.0 -0.5 L 342.0 -0.5 L 343.0 -0.5 L 344.0 -0.5 L 345.0 -0.5 L 346.0 -0.5 L 347.0 -0.5 L 348.0 -0.5 L 349.0 -0.5 L 350.0 -0.5 L 351.0 -0.5 L 352.0 -0.5 L 353.0 -0.5 L 354.0 -0.5 L 355.0 -0.5 L 356.0 -0.5 L 357.0 -0.5 L 358.0 -0.5 L 359.0 -0.5 L 360.0 -0.5 L 361.0 -0.5 L 362.0 -0.5 L 363.0 -0.5 L 364.0 -0.5 L 365.0 -0.5 L 366.0 -0.5 L 367.0 -0.5 L 368.0 -0.5 L 369.0 -0.5 L 370.0 -0.5 L 371.0 -0.5 L 372.0 -0.5 L 373.0 -0.5 L 374.0 -0.5 L 375.0 -0.5 L 376.0 -0.5 L 377.0 -0.5 L 378.0 -0.5 L 379.0 -0.5 L 380.0 -0.5 L 381.0 -0.5 L 382.0 -0.5 L 383.0 -0.5 L 384.0 -0.5 L 385.0 -0.5 L 386.0 -0.5 L 387.0 -0.5 L 388.0 -0.5 L 389.0 -0.5 L 390.0 -0.5 L 391.0 -0.5 L 392.0 -0.5 L 393.0 -0.5 L 394.0 -0.5 L 395.0 -0.5 L 396.0 -0.5 L 397.0 -0.5 L 398.0 -0.5 L 399.0 -0.5 L 400.0 -0.5 L 401.0 -0.5 L 402.0 -0.5 L 403.0 -0.5 L 404.0 -0.5 L 405.0 -0.5 L 406.0 -0.5 L 407.0 -0.5 L 408.0 -0.5 L 409.0 -0.5 L 410.0 -0.5 L 411.0 -0.5 L 412.0 -0.5 L 413.0 -0.5 L 414.0 -0.5 L 415.0 -0.5 L 416.0 -0.5 L 417.0 -0.5 L 418.0 -0.5 L 419.0 -0.5 L 420.0 -0.5 L 421.0 -0.5 L 422.0 -0.5 L 423.0 -0.5 L 424.0 -0.5 L 425.0 -0.5 L 426.0 -0.5 L 427.0 -0.5 L 428.0 -0.5 L 429.0 -0.5 L 430.0 -0.5 L 431.0 -0.5 L 432.0 -0.5 L 433.0 -0.5 L 434.0 -0.5 L 435.0 -0.5 L 436.0 -0.5 L 437.0 -0.5 L 438.0 -0.5 L 439.0 -0.5 L 440.0 -0.5 L 441.0 -0.5 L 442.0 -0.5 L 443.0 -0.5 L 444.0 -0.5 L 445.0 -0.5 L 446.0 -0.5 L 447.0 -0.5 L 448.0 -0.5 L 449.0 -0.5 L 450.0 -0.5 L 451.0 -0.5 L 452.0 -0.5 L 453.0 -0.5 L 454.0 -0.5 L 455.0 -0.5 L 456.0 -0.5 L 457.0 -0.5 L 458.0 -0.5 L 459.0 -0.5 L 460.0 -0.5 L 461.0 -0.5 L 462.0 -0.5 L 463.0 -0.5 L 464.0 -0.5 L 465.0 -0.5 L 466.0 -0.5 L 467.0 -0.5 L 468.0 -0.5 L 469.0 -0.5 L 470.0 -0.5 L 471.0 -0.5 L 472.0 -0.5 L 473.0 -0.5 L 474.0 -0.5 L 475.0 -0.5 L 476.0 -0.5 L 477.0 -0.5 L 478.0 -0.5 L 479.0 -0.5 L 480.0 -0.5 L 481.0 -0.5 L 482.0 -0.5 L 483.0 -0.5 L 484.0 -0.5 L 485.0 -0.5 L 486.0 -0.5 L 487.0 -0.5 L 488.0 -0.5 L 489.0 -0.5 L 490.0 -0.5 L 491.0 -0.5 L 492.0 -0.5 L 493.0 -0.5 L 494.0 -0.5 L 495.0 -0.5 L 496.0 -0.5 L 497.0 -0.5 L 498.0 -0.5 L 499.0 -0.5 L 500.0 -0.5 L 501.0 -0.5 L 502.0 -0.5 L 503.0 -0.5 L 504.0 -0.5 L 505.0 -0.5 L 506.0 -0.5 L 507.0 -0.5 L 508.0 -0.5 L 509.0 -0.5 L 509.5 0.0 L 509.5 1.0 L 509.5 2.0 L 509.5 3.0 L 509.5 4.0 L 509.5 5.0 L 509.5 6.0 L 509.5 7.0 L 509.5 8.0 L 509.5 9.0 L 509.5 10.0 L 509.5 11.0 L 509.5 12.0 L 509.5 13.0 L 509.5 14.0 L 509.5 15.0 L 509.5 16.0 L 509.5 17.0 L 509.5 18.0 L 509.5 19.0 L 509.5 20.0 L 509.5 21.0 L 509.5 22.0 L 509.5 23.0 L 509.5 24.0 L 509.5 25.0 L 509.5 26.0 L 509.5 27.0 L 509.5 28.0 L 509.5 29.0 L 509.5 30.0 L 509.5 31.0 L 509.5 32.0 L 509.5 33.0 L 509.5 34.0 L 509.5 35.0 L 509.5 36.0 L 509.5 37.0 L 509.5 38.0 L 509.5 39.0 L 509.5 40.0 L 509.5 41.0 L 509.5 42.0 L 509.5 43.0 L 509.5 44.0 L 509.5 45.0 L 509.5 46.0 L 509.5 47.0 L 509.5 48.0 L 509.5 49.0 L 509.5 50.0 L 509.5 51.0 L 509.5 52.0 L 509.5 53.0 L 509.5 54.0 L 509.5 55.0 L 509.5 56.0 L 509.5 57.0 L 509.5 58.0 L 509.5 59.0 L 509.5 60.0 L 509.5 61.0 L 509.5 62.0 L 509.5 63.0 L 509.5 64.0 L 509.5 65.0 L 509.5 66.0 L 509.5 67.0 L 509.5 68.0 L 509.5 69.0 L 509.5 70.0 L 509.5 71.0 L 509.5 72.0 L 509.5 73.0 L 509.5 74.0 L 509.5 75.0 L 509.5 76.0 L 509.5 77.0 L 509.5 78.0 L 509.5 79.0 L 509.5 80.0 L 509.5 81.0 L 509.5 82.0 L 509.5 83.0 L 509.5 84.0 L 509.5 85.0 L 509.5 86.0 L 509.5 87.0 L 509.5 88.0 L 509.5 89.0 L 509.5 90.0 L 509.5 91.0 L 509.5 92.0 L 509.5 93.0 L 509.5 94.0 L 509.5 95.0 L 509.5 96.0 L 509.5 97.0 L 509.5 98.0 L 509.5 99.0 L 509.5 100.0 L 509.5 101.0 L 509.5 102.0 L 509.5 103.0 L 509.5 104.0 L 509.5 105.0 L 509.5 106.0 L 509.5 107.0 L 509.5 108.0 L 509.5 109.0 L 509.5 110.0 L 509.5 111.0 L 509.5 112.0 L 509.5 113.0 L 509.5 114.0 L 509.5 115.0 L 509.5 116.0 L 509.5 117.0 L 509.5 118.0 L 509.5 119.0 L 509.5 120.0 L 509.5 121.0 L 509.5 122.0 L 509.5 123.0 L 509.5 124.0 L 509.5 125.0 L 509.5 126.0 L 509.5 127.0 L 509.5 128.0 L 509.5 129.0 L 509.5 130.0 L 509.5 131.0 L 509.5 132.0 L 509.5 133.0 L 509.5 134.0 L 509.5 135.0 L 509.5 136.0 L 509.5 137.0 L 509.5 138.0 L 509.5 139.0 L 509.5 140.0 L 509.5 141.0 L 509.5 142.0 L 509.5 143.0 L 509.5 144.0 L 509.5 145.0 L 509.5 146.0 L 509.5 147.0 L 509.5 148.0 L 509.5 149.0 L 509.5 150.0 L 509.5 151.0 L 509.5 152.0 L 509.5 153.0 L 509.5 154.0 L 509.5 155.0 L 509.5 156.0 L 509.5 157.0 L 509.5 158.0 L 509.5 159.0 L 509.5 160.0 L 509.5 161.0 L 509.5 162.0 L 509.5 163.0 L 509.5 164.0 L 509.5 165.0 L 509.5 166.0 L 509.5 167.0 L 509.5 168.0 L 509.5 169.0 L 509.5 170.0 L 509.5 171.0 L 509.5 172.0 L 509.5 173.0 L 509.5 174.0 L 509.5 175.0 L 509.5 176.0 L 509.5 177.0 L 509.5 178.0 L 509.5 179.0 L 509.5 180.0 L 509.5 181.0 L 509.5 182.0 L 509.5 183.0 L 509.5 184.0 L 509.5 185.0 L 509.5 186.0 L 509.5 187.0 L 509.5 188.0 L 509.5 189.0 L 509.5 190.0 L 509.5 191.0 L 509.5 192.0 L 509.5 193.0 L 509.5 194.0 L 509.5 195.0 L 509.5 196.0 L 509.5 197.0 L 509.5 198.0 L 509.5 199.0 L 509.5 200.0 L 509.5 201.0 L 509.5 202.0 L 509.5 203.0 L 509.5 204.0 L 509.5 205.0 L 509.5 206.0 L 509.5 207.0 L 509.5 208.0 L 509.5 209.0 L 509.5 210.0 L 509.5 211.0 L 509.5 212.0 L 509.5 213.0 L 509.5 214.0 L 509.5 215.0 L 509.5 216.0 L 509.5 217.0 L 509.5 218.0 L 509.5 219.0 L 509.5 220.0 L 509.5 221.0 L 509.5 222.0 L 509.5 223.0 L 509.5 224.0 L 509.5 225.0 L 509.5 226.0 L 509.5 227.0 L 509.5 228.0 L 509.5 229.0 L 509.5 230.0 L 509.5 231.0 L 509.5 232.0 L 509.5 233.0 L 509.5 234.0 L 509.5 235.0 L 509.5 236.0 L 509.5 237.0 L 509.5 238.0 L 509.5 239.0 L 509.5 240.0 L 509.5 241.0 L 509.5 242.0 L 509.5 243.0 L 509.5 244.0 L 509.5 245.0 L 509.5 246.0 L 509.5 247.0 L 509.5 248.0 L 509.5 249.0 L 509.5 250.0 L 509.5 251.0 L 509.5 252.0 L 509.5 253.0 L 509.5 254.0 L 509.5 255.0 L 509.5 256.0 L 509.5 257.0 L 509.5 258.0 L 509.5 259.0 L 509.5 260.0 L 509.5 261.0 L 509.5 262.0 L 509.5 263.0 L 509.5 264.0 L 509.5 265.0 L 509.5 266.0 L 509.5 267.0 L 509.5 268.0 L 509.5 269.0 L 509.5 270.0 L 509.5 271.0 L 509.5 272.0 L 509.5 273.0 L 509.5 274.0 L 509.5 275.0 L 509.5 276.0 L 509.5 277.0 L 509.5 278.0 L 509.5 279.0 L 509.5 280.0 L 509.5 281.0 L 509.5 282.0 L 509.5 283.0 L 509.5 284.0 L 509.5 285.0 L 509.5 286.0 L 509.5 287.0 L 509.5 288.0 L 509.5 289.0 L 509.5 290.0 L 509.5 291.0 L 509.5 292.0 L 509.5 293.0 L 509.5 294.0 L 509.5 295.0 L 509.5 296.0 L 509.5 297.0 L 509.5 298.0 L 509.5 299.0 L 509.5 300.0 L 509.5 301.0 L 509.5 302.0 L 509.5 303.0 L 509.5 304.0 L 509.5 305.0 L 509.5 306.0 L 509.5 307.0 L 509.5 308.0 L 509.5 309.0 L 509.5 310.0 L 509.5 311.0 L 509.5 312.0 L 509.5 313.0 L 509.5 314.0 L 509.5 315.0 L 509.5 316.0 L 509.5 317.0 L 509.5 318.0 L 509.5 319.0 L 509.5 320.0 L 509.5 321.0 L 509.5 322.0 L 509.5 323.0 L 509.5 324.0 L 509.5 325.0 L 509.5 326.0 L 509.5 327.0 L 509.5 328.0 L 509.5 329.0 L 509.5 330.0 L 509.5 331.0 L 509.5 332.0 L 509.5 333.0 L 509.5 334.0 L 509.5 335.0 L 509.5 336.0 L 509.5 337.0 L 509.5 338.0 L 509.5 339.0 L 509.5 340.0 L 509.5 341.0 L 509.5 342.0 L 509.5 343.0 L 509.5 344.0 L 509.5 345.0 L 509.5 346.0 L 509.5 347.0 L 509.5 348.0 L 509.5 349.0 L 509.5 350.0 L 509.5 351.0 L 509.5 352.0 L 509.5 353.0 L 509.5 354.0 L 509.5 355.0 L 509.5 356.0 L 509.5 357.0 L 509.5 358.0 L 509.5 359.0 L 509.5 360.0 L 509.5 361.0 L 509.5 362.0 L 509.5 363.0 L 509.5 364.0 L 509.5 365.0 L 509.5 366.0 L 509.5 367.0 L 509.5 368.0 L 509.5 369.0 L 509.5 370.0 L 509.5 371.0 L 509.5 372.0 L 509.5 373.0 L 509.5 374.0 L 509.5 375.0 L 509.5 376.0 L 509.5 377.0 L 509.5 378.0 L 509.5 379.0 L 509.5 380.0 L 509.5 381.0 L 509.5 382.0 L 509.5 383.0 L 509.5 384.0 L 509.5 385.0 L 509.5 386.0 L 509.5 387.0 L 509.5 388.0 L 509.5 389.0 L 509.5 390.0 L 509.5 391.0 L 509.5 392.0 L 509.5 393.0 L 509.5 394.0 L 509.5 395.0 L 509.5 396.0 L 509.5 397.0 L 509.5 398.0 L 509.5 399.0 L 509.5 400.0 L 509.5 401.0 L 509.5 402.0 L 509.5 403.0 L 509.5 404.0 L 509.5 405.0 L 509.5 406.0 L 509.5 407.0 L 509.5 408.0 L 509.5 409.0 L 509.5 410.0 L 509.5 411.0 L 509.5 412.0 L 509.5 413.0 L 509.5 414.0 L 509.5 415.0 L 509.5 416.0 L 509.5 417.0 L 509.5 418.0 L 509.5 419.0 L 509.5 420.0 L 509.5 421.0 L 509.5 422.0 L 509.5 423.0 L 509.5 424.0 L 509.5 425.0 L 509.5 426.0 L 509.5 427.0 L 509.5 428.0 L 509.5 429.0 L 509.5 430.0 L 509.5 431.0 L 509.5 432.0 L 509.5 433.0 L 509.5 434.0 L 509.5 435.0 L 509.5 436.0 L 509.5 437.0 L 509.5 438.0 L 509.5 439.0 L 509.5 440.0 L 509.5 441.0 L 509.5 442.0 L 509.5 443.0 L 509.5 444.0 L 509.5 445.0 L 509.5 446.0 L 509.5 447.0 L 509.5 448.0 L 509.5 449.0 L 509.5 450.0 L 509.5 451.0 L 509.5 452.0 L 509.5 453.0 L 509.5 454.0 L 509.5 455.0 L 509.5 456.0 L 509.5 457.0 L 509.5 458.0 L 509.5 459.0 L 509.5 460.0 L 509.5 461.0 L 509.5 462.0 L 509.5 463.0 L 509.5 464.0 L 509.5 465.0 L 509.5 466.0 L 509.5 467.0 L 509.5 468.0 L 509.5 469.0 L 509.5 470.0 L 509.5 471.0 L 509.5 472.0 L 509.5 473.0 L 509.5 474.0 L 509.5 475.0 L 509.5 476.0 L 509.5 477.0 L 509.5 478.0 L 509.5 479.0 L 509.5 480.0 L 509.5 481.0 L 509.5 482.0 L 509.5 483.0 L 509.5 484.0 L 509.5 485.0 L 509.5 486.0 L 509.5 487.0 L 509.5 488.0 L 509.5 489.0 L 509.5 490.0 L 509.5 491.0 L 509.5 492.0 L 509.5 493.0 L 509.5 494.0 L 509.5 495.0 L 509.5 496.0 L 509.5 497.0 L 509.5 498.0 L 509.5 499.0 L 509.5 500.0 L 509.5 501.0 L 509.5 502.0 L 509.5 503.0 L 509.5 504.0 L 509.5 505.0 L 509.5 506.0 L 509.5 507.0 L 509.5 508.0 L 509.5 509.0 L 509.5 510.0 L 509.5 511.0 L 509.5 512.0 L 509.5 513.0 L 509.5 514.0 L 509.5 515.0 L 509.5 516.0 L 509.5 517.0 L 509.5 518.0 L 509.5 519.0 L 509.5 520.0 L 509.5 521.0 L 509.5 522.0 L 509.5 523.0 L 509.5 524.0 L 509.5 525.0 L 509.5 526.0 L 509.5 527.0 L 509.5 528.0 L 509.5 529.0 L 509.5 530.0 L 509.5 531.0 L 509.5 532.0 L 509.5 533.0 L 509.5 534.0 L 509.5 535.0 L 509.5 536.0 L 509.5 537.0 L 509.5 538.0 L 509.5 539.0 L 509.5 540.0 L 509.5 541.0 L 509.5 542.0 L 509.5 543.0 L 509.5 544.0 L 509.5 545.0 L 509.5 546.0 L 509.5 547.0 L 509.5 548.0 L 509.5 549.0 L 509.5 550.0 L 509.5 551.0 L 509.5 552.0 L 509.5 553.0 L 509.5 554.0 L 509.5 555.0 L 509.5 556.0 L 509.5 557.0 L 509.5 558.0 L 509.5 559.0 L 509.5 560.0 L 509.5 561.0 L 509.5 562.0 L 509.5 563.0 L 509.5 564.0 L 509.5 565.0 L 509.5 566.0 L 509.5 567.0 L 509.5 568.0 L 509.5 569.0 L 509.5 570.0 L 509.5 571.0 L 509.5 572.0 L 509.5 573.0 L 509.5 574.0 L 509.5 575.0 L 509.5 576.0 L 509.5 577.0 L 509.5 578.0 L 509.5 579.0 L 509.5 580.0 L 509.5 581.0 L 509.5 582.0 L 509.5 583.0 L 509.5 584.0 L 509.5 585.0 L 509.5 586.0 L 509.5 587.0 L 509.5 588.0 L 509.5 589.0 L 509.5 590.0 L 509.5 591.0 L 509.5 592.0 L 509.5 593.0 L 509.5 594.0 L 509.5 595.0 L 509.5 596.0 L 509.5 597.0 L 509.5 598.0 L 509.5 599.0 L 509.5 600.0 L 509.5 601.0 L 509.5 602.0 L 509.5 603.0 L 509.5 604.0 L 509.5 605.0 L 509.5 606.0 L 509.5 607.0 L 509.5 608.0 L 509.5 609.0 L 509.5 610.0 L 509.5 611.0 L 509.5 612.0 L 509.5 613.0 L 509.5 614.0 L 509.5 615.0 L 509.5 616.0 L 509.5 617.0 L 509.5 618.0 L 509.5 619.0 L 509.5 620.0 L 509.5 621.0 L 509.5 622.0 L 509.5 623.0 L 509.5 624.0 L 509.5 625.0 L 509.5 626.0 L 509.5 627.0 L 509.5 628.0 L 509.5 629.0 L 509.5 630.0 L 509.5 631.0 L 509.5 632.0 L 509.5 633.0 L 509.5 634.0 L 509.5 635.0 L 509.5 636.0 L 509.5 637.0 L 509.5 638.0 L 509.5 639.0 L 509.5 640.0 L 509.5 641.0 L 509.5 642.0 L 509.5 643.0 L 509.5 644.0 L 509.5 645.0 L 509.5 646.0 L 509.5 647.0 L 509.5 648.0 L 509.0 648.5 Z" fill="#ffffff" stroke="none"/>
</svg>