<?xml version="1.0" standalone="no"?>
<!DOCTYPE svg PUBLIC "-//W3C//DTD SVG 20010904//EN"
 "http://www.w3.org/TR/2001/REC-SVG-20010904/DTD/svg10.dtd">
<svg version="1.0" xmlns="http://www.w3.org/2000/svg"
 width="510.000000pt" height="649.000000pt" viewBox="0 0 510.000000 649.000000"
 preserveAspectRatio="xMidYMid meet">
<metadata>
Created by potrace 1.16, written by Peter Selinger 2001-2019
</metadata>
<g transform="translate(0.000000,649.000000) scale(0.100000,-0.100000)"
fill="#000000" stroke="none">
<path d="M2455 6277 c-3 -7 -4 -127 -3 -267 l3 -255 25 0 25 0 3 254 c2 257
-1 281 -35 281 -7 0 -16 -6 -18 -13z"/>
<path d="M1900 5780 l0 -340 580 0 580 0 0 340 0 340 -219 0 c-121 0 -226 -3
-235 -6 -21 -8 -21 -50 0 -58 9 -3 101 -6 205 -6 l189 0 0 -275 0 -275 -520 0
-520 0 0 275 0 275 196 2 c177 3 198 5 208 21 9 15 7 21 -8 33 -16 11 -64 14
-238 14 l-218 0 0 -340z"/>
<path d="M1907 5323 c-13 -12 -7 -51 9 -57 9 -3 262 -6 563 -6 461 0 550 2
567 14 15 12 17 18 8 33 -11 17 -43 18 -576 21 -310 1 -568 -1 -571 -5z"/>
<path d="M2903 4905 c-195 -54 -316 -196 -341 -397 -24 -193 58 -382 208 -478
83 -53 159 -73 285 -73 128 0 210 18 297 66 l58 32 0 202 0 203 -175 0 -175 0
0 -73 c0 -43 5 -78 12 -85 7 -7 36 -12 65 -12 l53 0 0 -65 c0 -62 -1 -65 -27
-72 -16 -5 -64 -8 -108 -8 -69 0 -86 4 -126 27 -84 50 -129 145 -129 272 1
119 45 204 129 250 41 22 61 26 131 26 71 0 91 -4 146 -31 92 -44 117 -39 167
34 22 32 36 64 33 72 -8 21 -88 71 -156 97 -72 28 -268 35 -347 13z"/>
<path d="M1110 4434 l0 -476 238 4 c263 5 313 15 411 77 170 110 249 328 192
533 -44 162 -157 275 -320 320 -55 15 -103 18 -293 18 l-228 0 0 -476z m429
285 c72 -15 123 -56 157 -126 26 -52 29 -68 29 -153 -1 -77 -5 -105 -24 -148
-46 -104 -124 -145 -266 -140 l-90 3 -3 275 c-1 151 0 280 3 287 6 16 123 17
194 2z"/>
<path d="M2150 4435 l0 -475 115 0 115 0 0 475 0 475 -115 0 -115 0 0 -475z"/>
<path d="M3610 4435 l0 -475 120 0 120 0 0 475 0 475 -120 0 -120 0 0 -475z"/>
<path d="M765 4354 c-16 -14 -142 -113 -278 -221 -161 -128 -247 -202 -245
-212 3 -15 57 -60 398 -330 138 -110 155 -121 158 -101 5 29 7 27 -263 240
-126 100 -231 185 -233 190 -2 6 123 108 480 390 13 10 19 25 16 42 l-3 26
-30 -24z"/>
<path d="M4150 4357 c0 -30 6 -35 312 -277 108 -85 195 -157 193 -161 -3 -3
-117 -96 -255 -204 -203 -161 -250 -203 -250 -223 0 -13 4 -22 9 -20 4 2 130
99 280 217 175 139 271 221 271 233 0 16 -267 236 -547 451 -10 7 -13 3 -13
-16z"/>
<path d="M1110 3540 l0 -80 100 0 100 0 0 -300 0 -300 100 0 100 0 0 300 0
300 105 0 105 0 0 80 0 80 -305 0 -305 0 0 -80z"/>
<path d="M1820 3240 l0 -380 250 0 250 0 0 75 0 75 -150 0 -150 0 0 75 0 75
115 0 115 0 0 75 0 75 -115 0 -115 0 0 75 0 75 150 0 150 0 0 80 0 80 -250 0
-250 0 0 -380z"/>
<path d="M2673 3605 c-178 -55 -286 -241 -254 -435 15 -91 41 -150 92 -205 81
-87 169 -120 301 -113 100 6 169 33 222 87 l37 38 -44 46 c-42 46 -78 60 -93
36 -12 -19 -88 -49 -127 -49 -42 0 -101 22 -130 48 -52 47 -80 167 -58 248 36
135 171 194 293 129 26 -14 56 -25 66 -25 12 0 36 22 61 54 l41 55 -38 31
c-61 50 -129 70 -235 69 -51 0 -111 -6 -134 -14z"/>
<path d="M3180 3240 l0 -380 100 0 100 0 0 155 0 156 138 -3 137 -3 3 -152 3
-153 94 0 95 0 0 380 0 380 -95 0 -94 0 -3 -152 -3 -153 -137 -3 -138 -3 0
156 0 155 -100 0 -100 0 0 -380z"/>
<path d="M979 1277 c-40 -27 -47 -48 -48 -150 -1 -101 15 -141 64 -157 47 -16
112 -7 137 18 11 10 22 38 25 61 5 39 4 41 -21 41 -23 0 -26 -4 -26 -35 0 -39
-20 -55 -68 -55 -50 0 -62 25 -62 128 0 79 3 95 20 112 24 24 72 26 94 4 9 -8
16 -29 16 -45 0 -24 4 -29 25 -29 20 0 25 5 25 24 0 45 -19 77 -55 91 -49 21
-87 19 -126 -8z"/>
<path d="M2485 1286 c-17 -7 -36 -25 -43 -40 -15 -33 -16 -210 -2 -237 30 -55
144 -65 187 -14 21 24 23 36 23 131 0 58 -5 114 -11 126 -12 22 -67 48 -101
48 -13 -1 -37 -7 -53 -14z m105 -48 c17 -18 20 -35 20 -108 0 -103 -13 -130
-65 -130 -25 0 -39 7 -55 28 -19 24 -21 37 -18 108 2 63 7 87 22 103 25 27 70
27 96 -1z"/>
<path d="M2752 1278 c-7 -7 -12 -27 -12 -45 0 -26 -4 -33 -20 -33 -26 0 -26
-26 0 -33 17 -4 20 -15 22 -103 3 -84 6 -99 20 -102 15 -3 18 9 20 100 l3 103
28 3 c38 5 36 32 -3 32 -19 0 -30 5 -30 14 0 30 13 46 36 46 15 0 24 6 24 15
0 19 -70 21 -88 3z"/>
<path d="M3602 1128 c3 -155 4 -163 23 -163 19 0 20 8 23 163 l2 162 -25 0
-25 0 2 -162z"/>
<path d="M3822 1128 c3 -155 4 -163 23 -163 18 0 20 8 23 73 l3 72 59 0 c53 0
60 2 60 20 0 18 -7 20 -60 20 l-60 0 0 55 0 55 65 0 c51 0 65 3 65 15 0 12
-17 15 -90 15 l-90 0 2 -162z"/>
<path d="M4062 1128 c3 -144 5 -163 20 -166 14 -3 17 7 20 60 l3 63 62 5 c83
7 98 22 98 101 0 84 -19 99 -126 99 l-79 0 2 -162z"/>
<path d="M1730 1231 c0 -23 -5 -30 -22 -33 -30 -4 -34 -26 -6 -30 22 -3 23 -8
28 -98 l5 -94 32 -9 c37 -11 63 -4 63 18 0 10 -10 15 -30 15 l-31 0 3 83 c3
81 3 82 31 85 38 5 36 32 -3 32 -27 0 -30 3 -30 30 0 23 -4 30 -20 30 -15 0
-20 -7 -20 -29z"/>
<path d="M1240 1180 c-17 -17 -20 -33 -20 -97 0 -43 4 -83 8 -89 27 -40 111
-46 147 -9 33 33 33 65 0 65 -20 0 -25 -5 -25 -24 0 -23 -16 -36 -45 -36 -21
0 -45 29 -45 55 0 23 4 24 68 27 l67 3 3 37 c5 54 -31 88 -93 88 -32 0 -51 -6
-65 -20z"/>
<path d="M1464 1187 c-2 -7 -3 -60 -2 -118 3 -96 4 -104 23 -104 18 0 20 8 23
89 3 95 11 116 46 116 39 0 46 -19 46 -117 0 -86 1 -93 20 -93 19 0 20 7 20
104 0 82 -3 108 -16 120 -17 18 -66 21 -94 6 -13 -7 -21 -7 -25 0 -9 14 -35
12 -41 -3z"/>
<path d="M1880 1080 c0 -113 1 -120 20 -120 18 0 20 7 20 88 0 103 12 129 53
118 23 -5 27 -12 27 -41 0 -28 4 -35 20 -35 17 0 20 7 20 43 0 24 -5 48 -12
55 -16 16 -70 15 -87 0 -11 -10 -14 -10 -18 0 -3 6 -13 12 -24 12 -18 0 -19
-8 -19 -120z"/>
<path d="M2116 1179 c-24 -19 -26 -26 -26 -99 0 -73 2 -80 26 -99 38 -30 98
-28 129 4 22 21 25 33 25 95 0 62 -3 74 -25 95 -31 32 -91 34 -129 4z m98 -25
c11 -10 16 -34 16 -74 0 -62 -15 -90 -50 -90 -35 0 -50 28 -50 90 0 62 15 90
50 90 10 0 26 -7 34 -16z"/>
<path d="M3025 1175 c-22 -21 -25 -33 -25 -95 0 -63 3 -74 26 -97 22 -22 32
-25 76 -21 55 6 78 25 78 65 0 31 -37 32 -42 1 -2 -14 -14 -26 -32 -33 -24 -8
-31 -6 -47 14 -24 29 -26 107 -3 139 26 37 84 24 84 -20 0 -11 7 -18 20 -18
29 0 28 54 -2 74 -36 25 -104 21 -133 -9z"/>
<path d="M3372 1184 c-27 -19 -30 -64 -4 -64 9 0 22 10 27 23 13 28 65 36 85
12 21 -26 0 -49 -56 -60 -68 -14 -74 -20 -74 -70 0 -34 5 -47 19 -55 27 -14
64 -13 86 3 15 12 23 12 46 0 16 -8 33 -12 39 -8 13 8 13 35 0 35 -6 0 -10 33
-10 80 0 67 -3 83 -20 100 -25 25 -105 27 -138 4z"/>
<path d="M1220 555 l0 -165 70 0 c81 0 120 16 138 55 14 31 16 183 2 219 -14
38 -59 56 -140 56 l-70 0 0 -165z m154 109 c12 -12 16 -37 16 -109 0 -111 -9
-125 -76 -125 l-44 0 0 125 0 125 44 0 c27 0 51 -6 60 -16z"/>
<path d="M2400 555 l0 -165 25 0 25 0 0 165 0 165 -25 0 -25 0 0 -165z"/>
<path d="M2657 703 c-24 -28 -30 -66 -15 -104 14 -32 13 -34 -14 -57 -38 -32
-39 -92 -3 -128 26 -26 40 -27 170 -14 6 0 22 -2 38 -6 23 -5 27 -3 27 15 0
11 -6 21 -14 21 -11 0 -13 13 -9 60 5 56 4 60 -16 60 -17 0 -21 -6 -21 -30 0
-38 -12 -38 -45 2 -26 31 -27 33 -9 45 47 31 55 40 60 74 5 29 2 41 -15 58
-27 27 -110 30 -134 4z"/>
<path d="M2980 700 c0 -17 7 -20 45 -20 l45 0 0 -145 0 -145 25 0 25 0 0 145
0 145 40 0 c33 0 40 3 40 20 0 19 -7 20 -110 20 -103 0 -110 -1 -110 -20z"/>
<path d="M3720 555 c0 -158 1 -165 20 -165 18 0 20 7 20 85 0 72 3 88 20 105
24 24 43 25 64 4 12 -12 16 -37 16 -105 0 -82 1 -89 20 -89 19 0 20 7 20 98 0
120 -13 146 -69 140 -20 -3 -44 -8 -53 -12 -16 -7 -18 -2 -18 48 0 49 -2 56
-20 56 -19 0 -20 -7 -20 -165z"/>
<path d="M2008 658 c-2 -25 -8 -34 -25 -36 -13 -2 -23 -10 -23 -17 0 -7 10
-15 23 -17 21 -3 22 -9 25 -88 2 -46 8 -90 14 -97 15 -18 88 -17 88 1 0 7 -13
16 -30 20 l-30 6 0 80 0 80 30 0 c39 0 41 27 3 32 -23 2 -29 8 -31 36 -2 23
-8 32 -22 32 -14 0 -20 -9 -22 -32z"/>
<path d="M1660 623 c-31 -11 -40 -37 -40 -115 0 -72 2 -79 25 -94 24 -16 59
-16 98 1 30 12 18 -46 -11 -61 -28 -14 -62 -7 -62 12 0 8 -10 14 -25 14 -29 0
-33 -21 -9 -44 21 -22 57 -29 99 -22 57 11 65 33 65 178 l0 128 -32 -1 c-18
-1 -46 1 -63 4 -16 3 -37 4 -45 0z"/>
<path d="M2180 617 c-33 -17 -41 -67 -11 -67 12 0 21 7 21 15 0 35 81 44 94
10 11 -28 -5 -44 -52 -51 -72 -10 -82 -18 -82 -67 0 -24 5 -48 12 -55 16 -16
73 -15 99 1 17 10 23 10 26 0 7 -18 63 -17 63 1 0 8 -4 18 -10 21 -5 3 -10 40
-10 81 0 66 -3 78 -25 99 -27 28 -83 33 -125 12z"/>
<path d="M3283 620 c-33 -13 -43 -42 -43 -119 0 -90 18 -111 96 -111 43 0 56
4 68 22 9 12 16 30 16 40 0 26 -33 22 -45 -4 -21 -48 -95 -26 -95 28 0 23 3
24 70 24 l70 0 0 40 c0 72 -64 109 -137 80z"/>
<path d="M3506 609 c-24 -19 -26 -26 -26 -100 0 -99 15 -119 90 -119 57 0 90
24 90 65 0 20 -5 25 -24 25 -19 0 -25 -6 -28 -27 -2 -22 -9 -29 -31 -31 -45
-5 -57 13 -57 84 0 56 3 65 24 79 30 20 66 6 66 -25 0 -15 7 -20 25 -20 33 0
33 32 0 65 -31 32 -91 34 -129 4z"/>
</g>
</svg>
