<?xml version="1.0" standalone="no"?>
<!DOCTYPE svg PUBLIC "-//W3C//DTD SVG 20010904//EN"
 "http://www.w3.org/TR/2001/REC-SVG-20010904/DTD/svg10.dtd">
<svg version="1.0" xmlns="http://www.w3.org/2000/svg"
 width="489.000000pt" height="699.000000pt" viewBox="0 0 489.000000 699.000000"
 preserveAspectRatio="xMidYMid meet">
<metadata>
Created by potrace 1.16, written by Peter Selinger 2001-2019
</metadata>
<g transform="translate(0.000000,699.000000) scale(0.100000,-0.100000)"
fill="#000000" stroke="none">
<path d="M2427 6403 c-4 -3 -7 -104 -7 -224 0 -221 2 -234 38 -222 9 4 12 57
12 223 0 189 -2 219 -16 224 -19 7 -19 7 -27 -1z"/>
<path d="M1960 5975 l0 -285 485 0 485 0 0 285 0 285 -194 0 c-196 0 -221 -5
-196 -35 10 -12 45 -15 176 -15 l164 0 0 -230 0 -230 -435 0 -435 0 0 230 0
230 164 0 c131 0 166 3 176 15 25 30 0 35 -196 35 l-194 0 0 -285z"/>
<path d="M1972 5601 c-8 -5 -12 -17 -10 -27 3 -18 21 -19 483 -19 462 0 480 1
483 19 2 10 -2 22 -10 27 -7 5 -220 9 -473 9 -253 0 -466 -4 -473 -9z"/>
<path d="M2800 5255 c-119 -34 -204 -106 -257 -221 -25 -53 -28 -70 -28 -169
0 -105 2 -114 33 -177 43 -88 106 -152 190 -191 60 -29 78 -32 174 -35 118 -4
191 11 266 54 l42 25 0 169 0 170 -150 0 -150 0 0 -44 c0 -25 4 -56 10 -70 8
-23 15 -26 60 -26 l50 0 0 -54 0 -54 -50 -12 c-124 -30 -230 32 -266 157 -38
129 18 274 119 312 57 22 147 13 217 -20 78 -37 94 -32 138 40 l31 50 -32 25
c-18 14 -59 37 -92 52 -74 34 -218 43 -305 19z"/>
<path d="M1300 4861 l0 -401 158 0 c190 0 268 11 347 50 146 71 224 212 213
384 -11 151 -82 257 -216 323 l-76 38 -213 3 -213 3 0 -400z m414 216 c75 -41
112 -125 104 -237 -8 -108 -63 -186 -146 -210 -20 -5 -67 -10 -104 -10 l-68 0
0 246 0 247 87 -7 c61 -4 98 -13 127 -29z"/>
<path d="M2170 4860 l0 -400 100 0 100 0 0 400 0 400 -100 0 -100 0 0 -400z"/>
<path d="M3390 4860 l0 -400 100 0 100 0 0 400 0 400 -100 0 -100 0 0 -400z"/>
<path d="M3840 4796 c0 -17 12 -34 36 -53 213 -166 384 -307 382 -313 -2 -5
-95 -81 -208 -170 -157 -124 -206 -168 -208 -187 -4 -30 -1 -28 79 36 67 55
137 110 279 223 58 46 106 90 108 98 2 10 -39 48 -104 100 -59 47 -132 105
-163 130 -213 171 -201 163 -201 136z"/>
<path d="M914 4712 c-67 -53 -170 -135 -228 -181 -59 -47 -106 -91 -105 -100
0 -9 75 -74 166 -146 91 -71 192 -151 224 -177 32 -27 61 -48 64 -48 3 0 5 9
5 19 0 23 -17 38 -238 210 -95 74 -172 138 -172 143 0 6 103 90 392 318 12 9
19 25 16 37 -3 19 -18 10 -124 -75z"/>
<path d="M2643 4180 c-91 -19 -181 -91 -225 -179 -33 -67 -33 -214 0 -286 27
-60 82 -119 136 -147 111 -57 270 -38 358 44 l31 29 -38 39 c-22 22 -43 40
-49 40 -5 0 -33 -12 -63 -26 -83 -41 -152 -24 -207 50 -17 23 -21 42 -21 114
0 75 3 91 23 120 48 67 146 86 229 44 51 -26 65 -22 103 33 l30 43 -33 25
c-70 53 -182 76 -274 57z"/>
<path d="M1300 4110 l0 -70 85 0 85 0 0 -250 0 -250 85 0 85 0 0 250 0 250 85
0 85 0 0 70 0 70 -255 0 -255 0 0 -70z"/>
<path d="M1900 3860 l0 -320 210 0 210 0 0 65 0 65 -130 0 -130 0 0 65 0 65
95 0 95 0 0 60 0 60 -95 0 -95 0 0 65 0 65 130 0 130 0 0 65 0 65 -210 0 -210
0 0 -320z"/>
<path d="M3030 3860 l0 -320 85 0 85 0 0 130 0 130 115 0 115 0 0 -130 0 -130
80 0 80 0 0 320 0 320 -80 0 -80 0 0 -130 0 -130 -115 0 -115 0 0 130 0 130
-85 0 -85 0 0 -320z"/>
</g>
</svg>
